<svg width="118" height="86" viewBox="0 0 118 86" fill="none" xmlns="http://www.w3.org/2000/svg">
<path d="M105.894 55.3607C104.262 55.3607 102.705 55.6874 101.282 56.2756L79.53 22.7799C80.6225 21.6942 81.3002 20.1916 81.3002 18.5335V16.3672H89.5831C91.7614 16.3672 93.5335 14.5951 93.5335 12.4168V4.26133C93.5335 2.08304 91.7614 0.311005 89.5831 0.311005H3.95032C1.77204 0.311005 0 2.08304 0 4.26133V12.4168C0 14.5951 1.77204 16.3672 3.95032 16.3672H8.15551V18.5335C8.15551 21.1677 9.86561 23.4084 12.2333 24.2082V61.6297C6.46324 62.549 2.03888 67.5585 2.03888 73.5831C2.03888 80.2582 7.46968 85.689 14.1447 85.689C18.4218 85.689 22.185 83.4574 24.3391 80.0994C26.4932 83.4574 30.2564 85.689 34.5335 85.689C38.8105 85.689 42.5738 83.4574 44.7279 80.0994C46.8819 83.4574 50.6452 85.689 54.9222 85.689C61.5973 85.689 67.0281 80.2582 67.0281 73.5831C67.0281 67.5585 62.6037 62.549 56.8337 61.6297V24.2082C59.2013 23.4084 60.9114 21.1677 60.9114 18.5335V16.3672H69.3218V18.5335C69.3218 21.8359 72.0085 24.5227 75.311 24.5227C75.5687 24.5227 75.822 24.5046 76.071 24.4727L98.0249 58.2788C95.4345 60.5007 93.7883 63.794 93.7883 67.4665C93.7883 74.1415 99.2191 79.5723 105.894 79.5723C112.569 79.5723 118 74.1415 118 67.4665C118 60.7915 112.569 55.3607 105.894 55.3607ZM3.82289 12.4168V4.26133C3.82289 4.19099 3.87998 4.1339 3.95032 4.1339H89.5831C89.6535 4.1339 89.7106 4.19099 89.7106 4.26133V12.4168C89.7106 12.4872 89.6535 12.5443 89.5831 12.5443H3.95032C3.87998 12.5443 3.82289 12.4872 3.82289 12.4168ZM53.0108 24.2082V61.6297C49.5376 62.183 46.5542 64.2196 44.7279 67.0669C42.9015 64.2196 39.9181 62.183 36.4449 61.6297V24.2082C38.8126 23.4084 40.5227 21.1677 40.5227 18.5335V16.3672H48.933V18.5335C48.933 21.1677 50.6432 23.4084 53.0108 24.2082ZM24.3391 67.0669C22.5128 64.2196 19.5294 62.183 16.0562 61.6297V24.2082C18.4238 23.4084 20.1339 21.1677 20.1339 18.5335V16.3672H28.5443V18.5335C28.5443 21.1677 30.2544 23.4084 32.622 24.2082V61.6297C29.1488 62.183 26.1654 64.2196 24.3391 67.0669ZM36.6998 16.3672V18.5335C36.6998 19.728 35.728 20.6998 34.5335 20.6998C33.3389 20.6998 32.3672 19.728 32.3672 18.5335V16.3672H36.6998ZM11.9784 16.3672H16.311V18.5335C16.311 19.728 15.3392 20.6998 14.1447 20.6998C12.9502 20.6998 11.9784 19.728 11.9784 18.5335V16.3672ZM14.1447 81.8661C9.57762 81.8661 5.86177 78.1502 5.86177 73.5831C5.86177 69.0161 9.57762 65.3002 14.1447 65.3002C18.7118 65.3002 22.4276 69.0161 22.4276 73.5831C22.4276 78.1502 18.7118 81.8661 14.1447 81.8661ZM34.5335 81.8661C29.9664 81.8661 26.2505 78.1502 26.2505 73.5831C26.2505 69.0161 29.9664 65.3002 34.5335 65.3002C39.1006 65.3002 42.8164 69.0161 42.8164 73.5831C42.8164 78.1502 39.1006 81.8661 34.5335 81.8661ZM63.2052 73.5831C63.2052 78.1502 59.4893 81.8661 54.9222 81.8661C50.3552 81.8661 46.6393 78.1502 46.6393 73.5831C46.6393 69.0161 50.3552 65.3002 54.9222 65.3002C59.4893 65.3002 63.2052 69.0161 63.2052 73.5831ZM57.0886 18.5335C57.0886 19.728 56.1168 20.6998 54.9222 20.6998C53.7277 20.6998 52.7559 19.728 52.7559 18.5335V16.3672H57.0886V18.5335ZM73.1447 18.5335V16.3672H77.4773V18.5335C77.4773 19.728 76.5055 20.6998 75.311 20.6998C74.1165 20.6998 73.1447 19.728 73.1447 18.5335ZM105.894 75.7495C101.327 75.7495 97.6112 72.0336 97.6112 67.4665C97.6112 62.8994 101.327 59.1836 105.894 59.1836C110.461 59.1836 114.177 62.8994 114.177 67.4665C114.177 72.0336 110.461 75.7495 105.894 75.7495Z" fill="black"/>
<path d="M14.1447 69.6328C13.0891 69.6328 12.2333 70.4886 12.2333 71.5443C12.2333 72.5999 13.0891 73.4557 14.1447 73.4557C14.2151 73.4557 14.2722 73.5128 14.2722 73.5832C14.2722 74.6388 15.128 75.4946 16.1836 75.4946C17.2392 75.4946 18.095 74.6388 18.095 73.5832C18.095 71.4049 16.323 69.6328 14.1447 69.6328Z" fill="black"/>
<path d="M34.5335 69.6328C33.4779 69.6328 32.622 70.4886 32.622 71.5443C32.622 72.5999 33.4779 73.4557 34.5335 73.4557C34.6038 73.4557 34.6609 73.5128 34.6609 73.5832C34.6609 74.6388 35.5167 75.4946 36.5724 75.4946C37.628 75.4946 38.4838 74.6388 38.4838 73.5832C38.4838 71.4049 36.7118 69.6328 34.5335 69.6328Z" fill="black"/>
<path d="M53.0108 71.5443C53.0108 72.5999 53.8666 73.4557 54.9223 73.4557C54.9926 73.4557 55.0497 73.5128 55.0497 73.5832C55.0497 74.6388 55.9055 75.4946 56.9611 75.4946C58.0168 75.4946 58.8726 74.6388 58.8726 73.5832C58.8726 71.4049 57.1005 69.6328 54.9223 69.6328C53.8666 69.6328 53.0108 70.4886 53.0108 71.5443Z" fill="black"/>
<path d="M105.894 63.5162C104.839 63.5162 103.983 64.372 103.983 65.4276C103.983 66.4833 104.839 67.3391 105.894 67.3391C105.965 67.3391 106.022 67.3962 106.022 67.4665C106.022 68.5221 106.877 69.378 107.933 69.378C108.989 69.378 109.844 68.5221 109.844 67.4665C109.844 65.2882 108.072 63.5162 105.894 63.5162Z" fill="black"/>
</svg>
